<?xml version="1.0" encoding="iso-8859-1"?>
<!-- Generator: Adobe Illustrator 21.0.0, SVG Export Plug-In . SVG Version: 6.00 Build 0)  -->
<svg xmlns="http://www.w3.org/2000/svg" xmlns:xlink="http://www.w3.org/1999/xlink" version="1.1" id="Capa_1" x="0px" y="0px" viewBox="0 0 511.969 511.969" style="enable-background:new 0 0 511.969 511.969;" xml:space="preserve" width="512" height="512">
<g>
	<g>
		<path style="fill:#E4E3E1;" d="M493.419,217.302h-42.148c-5.062,0-9.42-3.471-10.676-8.375    c-4.522-17.663-11.512-34.336-20.58-49.634c-2.583-4.36-1.96-9.9,1.623-13.484l29.816-29.816c4.295-4.295,4.295-11.26,0-15.553    l-39.635-39.637c-4.295-4.295-11.259-4.295-15.553,0L366.449,90.62c-3.584,3.584-9.124,4.207-13.484,1.623    c-15.297-9.068-31.97-16.058-49.632-20.58c-4.905-1.256-8.376-5.613-8.376-10.676V18.84c0-6.074-4.923-10.998-10.997-10.998    h-56.054c-6.074,0-10.999,4.923-10.999,10.998v42.147c0,5.062-3.469,9.42-8.375,10.676c-17.663,4.523-34.335,11.512-49.632,20.58    c-4.361,2.584-9.9,1.96-13.485-1.623l-29.816-29.816c-4.294-4.295-11.258-4.295-15.553,0L60.41,100.44    c-4.295,4.294-4.295,11.258,0,15.553l29.816,29.817c3.584,3.582,4.206,9.123,1.623,13.483    c-9.067,15.297-16.059,31.971-20.58,49.634c-1.254,4.904-5.612,8.375-10.676,8.375H18.447c-6.074,0-10.999,4.923-10.999,10.998    v56.053c0,6.074,4.925,10.999,10.999,10.999h42.147c5.063,0,9.421,3.47,10.676,8.375c4.522,17.663,11.513,34.335,20.58,49.634    c2.583,4.36,1.96,9.899-1.623,13.483L60.41,396.659c-4.295,4.295-4.295,11.258,0,15.553l39.635,39.637    c4.295,4.295,11.26,4.295,15.553,0l29.816-29.817c3.585-3.584,9.124-4.206,13.485-1.622c15.297,9.067,31.97,16.058,49.632,20.58    c4.906,1.254,8.375,5.612,8.375,10.676v42.147c0,6.074,4.925,10.998,10.999,10.998h56.054c6.073,0,10.997-4.923,10.997-10.998    v-42.147c0-5.063,3.471-9.421,8.376-10.676c17.663-4.523,34.335-11.513,49.632-20.58c4.36-2.584,9.9-1.961,13.484,1.622    l29.817,29.817c4.294,4.295,11.258,4.295,15.553,0l39.635-39.637c4.295-4.295,4.295-11.258,0-15.553l-29.816-29.816    c-3.584-3.585-4.206-9.124-1.623-13.484c9.068-15.298,16.059-31.971,20.58-49.634c1.256-4.905,5.613-8.375,10.676-8.375h42.148    c6.073,0,10.998-4.925,10.998-10.999v-56.053C504.417,222.225,499.492,217.302,493.419,217.302z"/>
		<g>
			<path style="fill:#D1D0CF;" d="M90.226,145.811c3.583,3.582,4.206,9.123,1.623,13.483c-9.067,15.297-16.059,31.971-20.58,49.634     c-1.255,4.904-5.612,8.375-10.676,8.375h20c5.063,0,9.421-3.471,10.676-8.375c4.521-17.663,11.513-34.336,20.58-49.634     c2.583-4.36,1.96-9.9-1.623-13.483L80.41,115.993c-4.295-4.295-4.295-11.259,0-15.553l37.412-37.413l-2.223-2.223     c-4.294-4.295-11.258-4.295-15.553,0L60.41,100.44c-4.295,4.294-4.295,11.258,0,15.553L90.226,145.811z"/>
			<path style="fill:#D1D0CF;" d="M27.448,284.352V228.3c0-6.074,4.925-10.998,10.999-10.998h-20     c-6.074,0-10.999,4.923-10.999,10.998v56.053c0,6.074,4.925,10.999,10.999,10.999h20     C32.373,295.351,27.448,290.427,27.448,284.352z"/>
			<path style="fill:#D1D0CF;" d="M80.41,412.213c-4.295-4.295-4.295-11.258,0-15.553l29.816-29.817     c3.583-3.583,4.206-9.123,1.623-13.483c-9.067-15.298-16.059-31.971-20.58-49.634c-1.255-4.905-5.612-8.375-10.676-8.375h-20     c5.063,0,9.421,3.47,10.676,8.375c4.521,17.663,11.513,34.335,20.58,49.634c2.583,4.36,1.96,9.899-1.623,13.483L60.41,396.659     c-4.295,4.295-4.295,11.258,0,15.553l39.635,39.637c4.295,4.295,11.26,4.295,15.553,0l2.223-2.224L80.41,412.213z"/>
			<path style="fill:#D1D0CF;" d="M227.905,7.843c-6.074,0-10.998,4.924-10.998,10.998v42.146c0,2.66-0.964,5.119-2.585,7.042     c4.238-2.38,10.347-5.265,16.764-6.47c3.393-0.637,5.821-3.65,5.821-7.103V18.84c0-6.074,4.925-10.998,10.999-10.998H227.905z"/>
			<path style="fill:#D1D0CF;" d="M236.907,493.813v-37.171c0-2.657-1.968-4.937-4.608-5.242c-7.156-0.827-13.104-3.439-17.262-5.84     c1.186,1.758,1.87,3.862,1.87,6.106v42.146c0,6.074,4.924,10.998,10.998,10.998h20.001     C241.832,504.81,236.907,499.887,236.907,493.813z"/>
		</g>
		<circle style="fill:#ED5454;" cx="255.932" cy="256.326" r="149.406"/>
		<path style="fill:#EA3F3F;" d="M126.526,256.326c0-79.154,61.555-143.919,139.406-149.065c-3.306-0.219-6.638-0.341-10-0.341    c-82.515,0-149.406,66.891-149.406,149.406s66.891,149.406,149.406,149.406c3.362,0,6.694-0.123,10-0.341    C188.082,400.245,126.526,335.48,126.526,256.326z"/>
		<circle style="fill:#EA3F3F;" cx="255.932" cy="256.326" r="127.182"/>
		<path style="fill:#D4352F;" d="M148.75,256.326c0-66.875,51.616-121.692,117.182-126.792c-3.3-0.257-6.634-0.39-10-0.39    c-70.241,0-127.182,56.941-127.182,127.182s56.941,127.182,127.182,127.182c3.366,0,6.7-0.133,10-0.39    C200.366,378.018,148.75,323.201,148.75,256.326z"/>
		<path style="fill:#E4E3E1;" d="M316.739,252.628l-88.771-57.24c-2.928-1.888-6.784,0.214-6.784,3.698v114.48    c0,3.484,3.856,5.586,6.784,3.698l88.771-57.24C319.426,258.291,319.426,254.361,316.739,252.628z"/>
		<path style="fill:#D1D0CF;" d="M241.183,203.91l-13.215-8.521c-2.928-1.888-6.785,0.214-6.785,3.698v114.48    c0,3.484,3.856,5.586,6.785,3.698l13.215-8.521V203.91z"/>
	</g>
	<g>
		<path d="M412.891,255.984c0-86.519-70.388-156.906-156.906-156.906S99.078,169.466,99.078,255.984s70.388,156.906,156.906,156.906    S412.891,342.503,412.891,255.984z M255.984,397.891c-78.247,0-141.906-63.659-141.906-141.906s63.659-141.906,141.906-141.906    s141.906,63.659,141.906,141.906S334.231,397.891,255.984,397.891z"/>
		<path d="M255.984,121.303c-74.264,0-134.682,60.418-134.682,134.682s60.418,134.682,134.682,134.682    s134.682-60.418,134.682-134.682S330.248,121.303,255.984,121.303z M255.984,375.666c-65.993,0-119.682-53.689-119.682-119.682    s53.688-119.682,119.682-119.682s119.682,53.689,119.682,119.682S321.978,375.666,255.984,375.666z"/>
		<path d="M320.855,245.983l-88.771-57.24c-7.905-5.099-18.349,0.59-18.349,10v114.48c0,9.459,10.492,15.067,18.349,10.001    l88.771-57.24C328.126,261.296,328.115,250.665,320.855,245.983z M228.735,307.537V204.432l79.95,51.552L228.735,307.537z"/>
		<path d="M504.469,265.984c-4.143,0-7.5,3.358-7.5,7.5v10.526c0,1.929-1.568,3.499-3.497,3.499h-42.148    c-8.452,0-15.83,5.764-17.94,14.015c-4.284,16.73-10.935,32.769-19.768,47.671c-4.345,7.333-3.205,16.629,2.771,22.61    l29.816,29.816c1.364,1.364,1.364,3.583,0,4.947l-39.636,39.637c-1.363,1.364-3.579,1.367-4.945,0l-29.818-29.818    c-5.979-5.979-15.277-7.117-22.61-2.771c-14.902,8.833-30.941,15.483-47.667,19.767c-8.253,2.11-14.018,9.488-14.018,17.941    v42.146c0,1.929-1.568,3.498-3.497,3.498h-10.527c-4.143,0-7.5,3.358-7.5,7.5s3.357,7.5,7.5,7.5h10.527    c10.199,0,18.497-8.298,18.497-18.498v-42.146c0-1.596,1.124-2.998,2.736-3.41c18.108-4.637,35.468-11.835,51.597-21.395    c1.436-0.851,3.228-0.656,4.355,0.474l29.817,29.817c7.229,7.231,18.93,7.23,26.16,0l39.636-39.637    c7.212-7.212,7.212-18.947,0-26.16L426.995,361.2c-1.13-1.131-1.326-2.924-0.476-4.358c9.559-16.126,16.757-33.486,21.395-51.599    c0.412-1.61,1.813-2.734,3.409-2.734h42.148c10.199,0,18.497-8.298,18.497-18.499v-10.526    C511.969,269.342,508.611,265.984,504.469,265.984z"/>
		<path d="M493.472,209.459h-42.148c-1.595,0-2.997-1.124-3.409-2.735c-4.638-18.113-11.836-35.473-21.395-51.596    c-0.851-1.436-0.655-3.228,0.475-4.358l29.816-29.816c7.23-7.231,7.229-18.931,0-26.16l-39.636-39.637    c-7.229-7.228-18.93-7.231-26.159,0l-29.817,29.816c-1.131,1.13-2.919,1.327-4.356,0.476    c-16.126-9.559-33.485-16.757-51.597-21.395c-1.611-0.413-2.736-1.815-2.736-3.41V18.498c0-10.2-8.298-18.498-18.497-18.498    h-56.054c-10.2,0-18.499,8.298-18.499,18.498v42.146c0,1.596-1.124,2.998-2.735,3.41c-18.113,4.638-35.473,11.836-51.595,21.394    c-1.435,0.851-3.229,0.655-4.358-0.474l-29.815-29.815c-7.229-7.231-18.93-7.23-26.161,0L55.159,94.794    c-7.232,7.23-7.23,18.93-0.001,26.16l29.817,29.817c1.129,1.129,1.324,2.92,0.474,4.355    c-9.561,16.132-16.759,33.492-21.394,51.598c-0.412,1.61-1.814,2.734-3.41,2.734H18.499C8.299,209.459,0,217.758,0,227.958v56.053    c0,10.2,8.299,18.499,18.499,18.499h42.146c1.596,0,2.998,1.124,3.41,2.735c4.635,18.104,11.832,35.464,21.394,51.597    c0.85,1.436,0.655,3.227-0.475,4.356l-29.816,29.817c-7.231,7.232-7.229,18.93,0,26.16l39.636,39.637    c7.23,7.229,18.932,7.231,26.161,0l29.813-29.816c1.132-1.13,2.926-1.325,4.359-0.475c16.127,9.559,33.485,16.757,51.599,21.395    c1.608,0.412,2.732,1.813,2.732,3.409v42.146c0,10.2,8.299,18.498,18.499,18.498h10.526c4.143,0,7.5-3.358,7.5-7.5    s-3.357-7.5-7.5-7.5h-10.526c-1.93,0-3.499-1.569-3.499-3.498v-42.146c0-8.454-5.765-15.832-14.015-17.941    c-16.729-4.284-32.768-10.935-47.669-19.768c-7.333-4.345-16.632-3.206-22.612,2.771c-32.269,32.272-30.291,30.842-32.288,30.842    c-1.999,0,0.568,2.017-42.109-40.661c-1.364-1.364-1.364-3.583,0-4.947l29.816-29.818c5.977-5.978,7.117-15.274,2.771-22.609    c-8.835-14.908-15.485-30.946-19.767-47.669c-2.11-8.252-9.488-14.016-17.941-14.016H18.499c-1.93,0-3.499-1.569-3.499-3.499    v-56.053c0-1.929,1.569-3.498,3.499-3.498h42.146c8.452,0,15.83-5.763,17.941-14.015c4.281-16.725,10.932-32.764,19.767-47.671    c4.346-7.335,3.206-16.632-2.771-22.609l-29.816-29.817c-1.366-1.366-1.368-3.58,0-4.947l39.636-39.637    c1.364-1.365,3.58-1.367,4.946,0l29.816,29.817c5.979,5.976,15.275,7.117,22.612,2.771c14.898-8.832,30.936-15.482,47.667-19.767    c8.252-2.112,14.016-9.49,14.016-17.941V18.498c0-1.929,1.569-3.498,3.499-3.498h56.054c1.929,0,3.497,1.569,3.497,3.498v42.146    c0,8.451,5.764,15.829,14.016,17.941c16.731,4.284,32.769,10.934,47.669,19.767c7.334,4.347,16.633,3.208,22.61-2.772    l29.818-29.816c1.364-1.364,3.579-1.366,4.945,0l39.637,39.637c1.365,1.365,1.366,3.579-0.001,4.946l-29.816,29.816    c-5.978,5.978-7.117,15.275-2.771,22.611c8.832,14.899,15.482,30.938,19.767,47.668c2.111,8.252,9.489,14.015,17.94,14.015h42.148    c1.929,0,3.497,1.569,3.497,3.498v10.527c0,4.142,3.357,7.5,7.5,7.5s7.5-3.358,7.5-7.5v-10.527    C511.969,217.758,503.671,209.459,493.472,209.459z"/>
	</g>
</g>















</svg>
