<?xml version="1.0" encoding="iso-8859-1"?>
<!-- Generator: Adobe Illustrator 21.0.0, SVG Export Plug-In . SVG Version: 6.00 Build 0)  -->
<svg xmlns="http://www.w3.org/2000/svg" xmlns:xlink="http://www.w3.org/1999/xlink" version="1.1" id="Capa_1" x="0px" y="0px" viewBox="0 0 510.876 510.876" style="enable-background:new 0 0 510.876 510.876;" xml:space="preserve" width="512" height="512">
<g>
	<g>
		<path style="fill:#4B98D4;" d="M504.326,255.206c-1.96-41.812-36.175-75.567-78.008-76.998c-8.186-0.28-16.105,0.659-23.6,2.644    c-1.726,0.457-3.376-0.869-3.374-2.655c0-0.012,0-0.025,0-0.037c0-60.117-48.738-108.859-108.859-108.859    c-49.185,0-90.722,32.625-104.214,77.406c-1.169,3.88-5.1,6.27-9.065,5.428c-23.44-4.976-48.331,3.196-64.189,22.635    c-2.005,2.459-5.212,3.53-8.33,2.939c-49.666-9.42-94.863,27.877-97.146,76.492c-2.208,47.013,35.258,85.831,81.788,85.831    c8.593,0,328.317,0,334.156,0C469.47,340.031,506.503,301.674,504.326,255.206z"/>
		<g>
			<path style="fill:#2472B2;" d="M27.541,254.201c1.884-40.115,32.988-72.519,71.711-77.333     c-47.482-5.825-89.511,30.499-91.711,77.333c-2.208,47.013,35.258,85.831,81.788,85.831c1.196,0,8.429,0,20,0     C62.799,340.031,25.334,301.214,27.541,254.201z"/>
			<path style="fill:#2472B2;" d="M197.206,152.134c3.965,0.842,7.895-1.547,9.065-5.428c12.57-41.721,49.486-72.876,94.246-76.941     c-3.304-0.302-6.649-0.465-10.032-0.465c-49.185,0-90.722,32.625-104.214,77.406c-0.498,1.653-1.5,3.031-2.79,4.009     C188.06,150.705,192.66,151.169,197.206,152.134z"/>
			<path style="fill:#2472B2;" d="M124.687,177.708c3.118,0.591,6.324-0.48,8.33-2.939c10.561-12.946,25.13-20.887,40.607-23.283     c-22.364-3.46-45.555,4.831-60.607,23.283c-0.477,0.585-1.026,1.086-1.622,1.51C115.771,176.395,120.211,176.859,124.687,177.708     z"/>
		</g>
		<path style="fill:#FFC964;" d="M384.877,257.476H261.798c-2.565,0-4.835-1.658-5.616-4.102l-6.532-20.448    c-0.994-3.112-3.887-5.225-7.154-5.225h-77.429c-4.148,0-7.51,3.362-7.51,7.51c0,15.24,0,192.613,0,199.293    c0,4.283,3.472,7.756,7.756,7.756h219.564c4.283,0,7.756-3.472,7.756-7.756V265.231    C392.632,260.948,389.16,257.476,384.877,257.476z"/>
		<path style="fill:#F3A334;" d="M177.557,434.504c0-6.68,0-184.053,0-199.293c0-4.148,3.362-7.51,7.51-7.51h-20    c-4.148,0-7.51,3.362-7.51,7.51c0,15.24,0,192.613,0,199.293c0,4.283,3.472,7.756,7.756,7.756h20    C181.03,442.26,177.557,438.787,177.557,434.504z"/>
		<path style="fill:#F3A334;" d="M261.798,257.476c-2.565,0-4.835-1.658-5.616-4.102l-6.532-20.448    c-0.994-3.112-3.887-5.225-7.154-5.225h-77.429c-4.148,0-7.51,3.362-7.51,7.51v22.265H261.798z"/>
		<path style="fill:#EA7F2F;" d="M177.557,235.211c0-4.148,3.362-7.51,7.51-7.51h-20c-1.296,0-2.516,0.328-3.58,0.906    c-0.213,0.116-0.419,0.241-0.619,0.376c-0.399,0.27-0.772,0.577-1.111,0.917c-1.359,1.359-2.2,3.237-2.2,5.31    c0,2.76,0,10.843,0,22.265h20C177.557,246.054,177.557,237.971,177.557,235.211z"/>
	</g>
	<g>
		<path d="M293.844,300.233h67.624c4.143,0,7.5-3.357,7.5-7.5s-3.357-7.5-7.5-7.5h-67.624c-4.143,0-7.5,3.357-7.5,7.5    S289.701,300.233,293.844,300.233z"/>
		<path d="M293.844,328.386h67.624c4.143,0,7.5-3.357,7.5-7.5s-3.357-7.5-7.5-7.5h-67.624c-4.143,0-7.5,3.357-7.5,7.5    S289.701,328.386,293.844,328.386z"/>
		<path d="M503.507,273.346c-3.988-1.114-8.127,1.217-9.241,5.206c-8.818,31.581-37.903,53.637-70.729,53.637h-23.353v-67.3    c0-8.412-6.844-15.256-15.256-15.256H263.022l-6.176-19.332c-1.87-5.856-7.038-9.91-13.08-10.394    c-0.403-0.032-0.809-0.049-1.219-0.049h-77.429c-8.276,0-15.01,6.733-15.01,15.01v97.32H89.382    c-42.243,0-76.31-35.124-74.296-77.979c2.047-43.621,42.893-78.086,88.257-69.475c5.881,1.113,11.829-1.021,15.538-5.567    c13.769-16.881,35.538-24.563,56.819-20.039c7.701,1.63,15.521-3.022,17.805-10.603c12.783-42.433,52.685-72.068,97.031-72.068    c55.89,0,101.359,45.469,101.359,101.388c-0.008,6.728,6.315,11.628,12.793,9.913c42.295-11.193,84.323,16.848,91.287,59.032    c0.674,4.086,4.527,6.853,8.621,6.178c4.087-0.674,6.853-4.534,6.178-8.621c-7.994-48.431-54.626-81.934-104.026-72.436    c-3.088-61.425-54.032-110.454-116.212-110.454c-52.65,0-96.996,34.949-111.394,82.741c-0.056,0.181-0.226,0.276-0.326,0.257    c-26.799-5.693-54.221,3.975-71.559,25.229c-0.273,0.336-0.758,0.378-1.121,0.313c-28.269-5.362-58.21,2.995-79.888,24.664    C10.427,210.48,1.14,231.377,0.101,253.507c-2.401,51.149,38.195,93.682,89.28,93.682h60.728v86.973    c0,8.412,6.844,15.256,15.256,15.256h92.281c4.143,0,7.5-3.357,7.5-7.5s-3.357-7.5-7.5-7.5h-92.281    c-0.141,0-0.256-0.115-0.256-0.256l0.008-169.528h219.811c0.141,0,0.256,0.115,0.256,0.256v169.272    c0,0.141-0.115,0.256-0.256,0.256h-92.282c-4.143,0-7.5,3.357-7.5,7.5s3.357,7.5,7.5,7.5h92.282    c8.412,0,15.256-6.844,15.256-15.256v-86.973h23.353c39.529,0,74.555-26.565,85.176-64.602    C509.827,278.597,507.496,274.46,503.507,273.346z M165.119,234.859l77.438,0.008l4.718,14.767h-82.157L165.119,234.859z"/>
	</g>
</g>















</svg>
