<?xml version="1.0" encoding="iso-8859-1"?>
<!-- Generator: Adobe Illustrator 21.0.0, SVG Export Plug-In . SVG Version: 6.00 Build 0)  -->
<svg xmlns="http://www.w3.org/2000/svg" xmlns:xlink="http://www.w3.org/1999/xlink" version="1.1" id="Capa_1" x="0px" y="0px" viewBox="0 0 512.047 512.047" style="enable-background:new 0 0 512.047 512.047;" xml:space="preserve" width="512" height="512">
<g>
	<g>
		<path style="fill:#FFC964;" d="M172.122,319.153c17.823,13.006,28.055,34.002,28.055,56.066v17.876h112.01v-13.537    c0-24.425,11.289-47.524,30.683-62.37c34.081-26.086,56.062-67.184,56.062-113.417c0-78.432-63.253-142.089-141.53-142.745    c-78.969-0.661-143.971,63.774-143.97,142.746C113.433,251.183,136.548,293.193,172.122,319.153z"/>
		<path style="fill:#F3A334;" d="M192.122,319.153c-35.574-25.96-58.689-67.969-58.69-115.381    c0-75.192,58.928-137.203,132.733-142.397c-2.899-0.2-5.819-0.325-8.763-0.35c-78.969-0.661-143.971,63.774-143.97,142.746    c0,47.411,23.116,89.421,58.69,115.381c17.823,13.006,28.055,34.002,28.055,56.066v17.876h20v-17.876    C220.178,353.155,209.946,332.159,192.122,319.153z"/>
		<path style="fill:#4B98D4;" d="M227.68,471.414c4.1,19.511,15.308,33.522,28.503,33.522c13.194,0,24.403-14.011,28.502-33.522    H227.68z"/>
		<path style="fill:#2472B2;" d="M247.555,471.414H227.68c4.1,19.511,15.308,33.522,28.502,33.522c3.483,0,6.825-0.985,9.938-2.781    C257.444,497.147,250.573,485.775,247.555,471.414z"/>
		<path style="fill:#E4E3E1;" d="M315.202,388.095H197.164c-4.758,0-8.616,3.857-8.616,8.616v37.16    c0,22.583,18.308,40.891,40.891,40.891h53.488c22.583,0,40.891-18.308,40.891-40.891v-37.16    C323.817,391.953,319.96,388.095,315.202,388.095z"/>
		<path style="fill:#D1D0CF;" d="M208.548,433.871v-37.16c0-4.758,3.858-8.616,8.616-8.616h-20c-4.758,0-8.616,3.857-8.616,8.616    v37.16c0,22.583,18.308,40.891,40.891,40.891h20C226.855,474.762,208.548,456.455,208.548,433.871z"/>
		<path style="fill:#D1D0CF;" d="M188.548,431.429v2.442c0,22.583,18.308,40.891,40.891,40.891h53.488    c22.583,0,40.891-18.308,40.891-40.891v-2.442H188.548z"/>
		<path style="fill:#C1C1C1;" d="M208.548,433.871v-2.442h-20v2.442c0,22.583,18.308,40.891,40.891,40.891h20    C226.855,474.762,208.548,456.455,208.548,433.871z"/>
		<path style="fill:#525468;" d="M196.676,205.937c-1.197-1.197-1.197-3.137,0-4.333l21.102-21.102    c4.811-4.809,4.812-12.599,0-17.408c-4.797-4.799-12.606-4.801-17.407,0l-31.974,31.974c-4.811,4.808-4.812,12.598,0,17.407    l31.972,31.972c4.819,4.821,12.607,4.806,17.409,0.002c4.811-4.809,4.812-12.599,0-17.408L196.676,205.937z"/>
		<path style="fill:#525468;" d="M343.087,195.068l-31.902-31.902c-4.797-4.799-12.606-4.801-17.407,0    c-4.8,4.799-4.8,12.608,0,17.407l20.214,20.215c1.647,1.647,1.647,4.319,0,5.966l-20.215,20.216    c-4.811,4.808-4.812,12.598,0,17.407c4.807,4.809,12.6,4.814,17.407,0l31.902-31.902    C347.898,207.666,347.899,199.877,343.087,195.068z"/>
		<path style="fill:#525468;" d="M278.762,151.957c-6.221-2.712-13.489,0.146-16.202,6.368l-35.32,81.058    c-2.717,6.234,0.129,13.482,6.365,16.2c6.244,2.722,13.494-0.144,16.205-6.367l35.32-81.057    C287.841,161.938,284.985,154.67,278.762,151.957z"/>
		<path style="fill:#3E4151;" d="M188.397,212.475c-4.812-4.81-4.811-12.599,0-17.407l30.571-30.571    c-0.361-0.487-0.748-0.961-1.19-1.403c-4.797-4.799-12.606-4.801-17.407,0l-31.974,31.974c-4.811,4.808-4.812,12.598,0,17.407    l31.972,31.972c4.819,4.821,12.607,4.806,17.409,0.002c0.442-0.442,0.829-0.916,1.19-1.403L188.397,212.475z"/>
		<path style="fill:#3E4151;" d="M313.778,226.97l20.215-20.216c1.647-1.648,1.647-4.319,0-5.966l-20.214-20.215    c-4.358-4.357-4.745-11.19-1.189-16.004l-1.404-1.404c-4.797-4.799-12.606-4.801-17.407,0c-4.8,4.799-4.8,12.608,0,17.407    l20.214,20.215c1.647,1.647,1.647,4.319,0,5.966l-20.215,20.216c-4.811,4.808-4.812,12.598,0,17.407    c4.807,4.809,12.6,4.814,17.407,0l1.403-1.403C309.021,238.155,309.409,231.337,313.778,226.97z"/>
		<path style="fill:#3E4151;" d="M247.24,239.383l35.32-81.058c0.352-0.807,0.784-1.555,1.277-2.244    c-1.25-1.751-2.963-3.204-5.074-4.124c-6.221-2.712-13.489,0.146-16.202,6.368l-35.32,81.058    c-2.717,6.234,0.129,13.482,6.365,16.2c5.431,2.368,11.62,0.504,14.924-4.116C246.09,248.062,245.444,243.505,247.24,239.383z"/>
	</g>
	<g>
		<path d="M459.453,203.429c0-4.143-3.357-7.5-7.5-7.5h-23.596c-4.143,0-7.5,3.357-7.5,7.5s3.357,7.5,7.5,7.5h23.596    C456.096,210.929,459.453,207.571,459.453,203.429z"/>
		<path d="M52.595,203.429c0,4.143,3.357,7.5,7.5,7.5H83.69c4.143,0,7.5-3.357,7.5-7.5s-3.357-7.5-7.5-7.5H60.095    C55.952,195.929,52.595,199.286,52.595,203.429z"/>
		<path d="M409.019,123.758l20.435-11.799c3.587-2.071,4.816-6.658,2.745-10.245c-2.072-3.588-6.659-4.814-10.245-2.745    l-20.435,11.799c-3.587,2.071-4.816,6.658-2.745,10.245C400.848,124.603,405.436,125.827,409.019,123.758z"/>
		<path d="M90.094,307.889l20.436-11.798c3.587-2.071,4.816-6.658,2.745-10.245c-2.07-3.588-6.66-4.814-10.245-2.745l-20.436,11.798    c-3.587,2.071-4.816,6.658-2.745,10.245C81.919,308.732,86.508,309.959,90.094,307.889z"/>
		<path d="M348.685,57.934l11.799-20.435c2.071-3.587,0.842-8.174-2.745-10.245s-8.174-0.843-10.245,2.745l-11.799,20.435    c-2.071,3.587-0.842,8.174,2.745,10.245C342.024,62.748,346.612,61.524,348.685,57.934z"/>
		<path d="M263.524,31.096V7.5c0-4.143-3.357-7.5-7.5-7.5s-7.5,3.357-7.5,7.5v23.596c0,4.143,3.357,7.5,7.5,7.5    S263.524,35.238,263.524,31.096z"/>
		<path d="M163.362,57.934c2.071,3.589,6.66,4.815,10.245,2.745c3.587-2.071,4.816-6.658,2.745-10.245l-11.798-20.435    c-2.071-3.588-6.66-4.815-10.245-2.745c-3.587,2.071-4.816,6.658-2.745,10.245L163.362,57.934z"/>
		<path d="M103.029,123.758c3.585,2.07,8.174,0.844,10.245-2.745c2.071-3.587,0.842-8.174-2.745-10.245L90.094,98.969    c-3.586-2.07-8.176-0.843-10.245,2.745c-2.071,3.587-0.842,8.174,2.745,10.245L103.029,123.758z"/>
		<path d="M401.519,296.091l20.435,11.798c3.592,2.072,8.177,0.839,10.245-2.745c2.071-3.587,0.842-8.174-2.745-10.245    l-20.435-11.798c-3.589-2.07-8.175-0.844-10.245,2.745C396.703,289.433,397.932,294.02,401.519,296.091z"/>
		<path d="M223.134,221.396l-17.966-17.967l17.964-17.964c7.746-7.742,7.75-20.27,0.003-28.015    c-0.003-0.004-0.002-0.001-0.003-0.003c-7.725-7.725-20.277-7.733-28.013,0.001l-31.972,31.973    c-7.747,7.743-7.749,20.271-0.002,28.016l31.971,31.97c6.872,6.876,17.52,7.659,25.257,2.295    c1.913,4.499,5.463,8.312,10.287,10.415c10.039,4.379,21.704-0.21,26.078-10.246l29.883-68.579    c0.581,0.783,1.203,1.541,1.905,2.242l17.895,17.896l-17.893,17.895c-7.76,7.758-7.736,20.285-0.003,28.014    c7.732,7.736,20.274,7.752,28.016,0.002l31.9-31.901c7.748-7.746,7.749-20.269,0.002-28.016l-31.901-31.9    c-6.757-6.759-17.029-7.531-24.602-2.72c-1.948-4.344-5.432-8.014-10.129-10.062c-10.013-4.367-21.708,0.232-26.075,10.247    l-30.203,69.314C224.832,223.271,224.034,222.296,223.134,221.396z M299.134,168.127c1.87-1.872,4.928-1.873,6.8,0l31.902,31.902    c0,0,0.001,0,0.002,0.001c1.877,1.877,1.887,4.912-0.002,6.799l-31.905,31.906c-1.872,1.874-4.907,1.886-6.799-0.005    c-1.872-1.872-1.892-4.906,0.002-6.8l23.197-23.199c2.929-2.929,2.929-7.677,0-10.605l-23.198-23.199    C297.262,173.056,297.26,169.998,299.134,168.127z M234.168,242.037l35.319-81.056c1.06-2.431,3.896-3.552,6.33-2.491    c2.432,1.061,3.549,3.9,2.489,6.331l-35.32,81.058c-1.061,2.433-3.889,3.55-6.333,2.487    C234.223,247.307,233.108,244.468,234.168,242.037z M212.525,238.805c-1.871,1.871-4.908,1.891-6.801-0.004l-31.974-31.973    c-1.877-1.877-1.887-4.912,0.002-6.799l31.974-31.974c2.998-3.002,8.212-0.878,8.212,3.4c0,1.283-0.501,2.49-1.412,3.4    l-23.269,23.269c-2.929,2.93-2.929,7.678,0,10.606l23.271,23.271C214.404,233.879,214.417,236.913,212.525,238.805z"/>
		<path d="M266.08,60.842c-0.503,4.111,2.423,7.852,6.534,8.354c61.724,7.547,110.102,55.924,117.647,117.643    c0.465,3.803,3.699,6.591,7.435,6.591c0.304,0,0.611-0.019,0.92-0.057c4.111-0.502,7.037-4.243,6.534-8.354    c-8.321-68.069-62.391-122.357-130.716-130.711C270.336,53.797,266.583,56.729,266.08,60.842z"/>
		<path d="M347.271,322.802c31.926-24.437,53.022-61.236,57.879-100.963c0.503-4.111-2.423-7.853-6.534-8.354    c-4.122-0.502-7.852,2.422-8.354,6.534c-4.371,35.749-23.363,68.871-52.107,90.872c-20.342,15.572-33.625,40.415-33.625,69.362    h-97.011v-5.376c0-24.675-11.639-47.899-31.134-62.125c-34.821-25.41-55.61-66.278-55.61-109.321    c-0.001-68.14,51.017-125.844,118.672-134.225c4.11-0.51,7.03-4.255,6.521-8.365c-0.51-4.11-4.258-7.016-8.365-6.521    c-35.997,4.459-69.256,21.972-93.649,49.311c-24.62,27.594-38.179,63.037-38.179,99.801c0,47.816,23.091,93.214,61.769,121.438    c15.639,11.412,24.976,30.106,24.976,50.008v6.024c-6.708,1.949-11.629,8.139-11.629,15.468c0,21.686,0,15.257,0,37.16    c0,24.09,17.696,44.119,40.77,47.785c13.168,40.964,55.553,40.99,68.729,0c23.075-3.666,40.771-23.696,40.771-47.785    c0-21.871,0-15.483,0-37.16c0-7.329-4.922-13.519-11.63-15.468C319.529,355.647,330.685,335.498,347.271,322.802z     M315.043,395.253c0.615,0,1.116,0.501,1.116,1.116v27.218h-120.27v-27.218c0-0.615,0.5-1.116,1.115-1.116    C207.817,395.253,304.514,395.253,315.043,395.253z M282.767,466.92H229.28c-16.729,0-30.663-12.505-33.008-28.333h119.504    C313.428,454.434,299.494,466.92,282.767,466.92z M237.955,481.92h36.138C264.767,502.083,247.28,502.083,237.955,481.92z"/>
	</g>
</g>















</svg>
